/* XPM */
static char *result[] = {
/* columns rows colors chars-per-pixel */
"32 32 9 1 ",
"  c #1100ff",
". c #1100ff",
"X c #1100ff",
"o c #1100ff",
"O c #1100ff",
"+ c #1100ff",
"@ c #1100ff",
"# c #1100ff",
"$ c None",
/* pixels */
"$$$$$$$$$$$$$$$$$$$$$$$$$$$$$$$$",
"$$$$$$$$$$$$$$$$$$$$$$$$$$$$$$$$",
"$$$$$$$$$$$$$$$$$$$$$$##########",
"$$$$$$$$$$$$$$$$$$$$$#oooXooXX#$",
"$$$$$$$$$$$$$$$$$$$$#oooXooXX#$$",
"$$$$$$$$$$$$$$$$$$$#ooooooXX#$$$",
"$$$$$$$$$$$$$$$$$$#oooXooXX#$$$$",
"$$$$$$$$$$$$$$$$$#oooXooXX#$$$$$",
"$$$$$$$$$$$$$$$$#ooooooXXo##$$$$",
"$$$$$$$$$$$$$########ooXXo#.#$$$",
"$$$$#########....XXXX#oXXo#.#$$$",
"$$##XoXoXoX#...XXXXXXX#XXo#.#$$$",
"$#oooooooo#..XXXX.X..XX#Xo##$$$$",
"$#XXXXXXXXXXXXXXXXXXXXXX#o#$$$$$",
"$####...+@@@@+........XXX##$$$$$",
"$$$$$#.+@@@@+..........XX#$$$$$$",
"$$$$$# O++++O          ..#$$$$$$",
"$####   O++++O        ...##$$$$$",
"$#......................#X#$$$$$",
"$#XXXXXXXX#  .... .  ..#.X##$$$$",
"$$##.X.X.X.#   .......#..X# #$$$",
"$$$$#########    ....#X..X# #$$$",
"$$$$$$$$$$$$$########XX..X# #$$$",
"$$$$$$$$$$$$$$$$#XXXXXX..X##$$$$",
"$$$$$$$$$$$$$$$$$#XXX.XX..#$$$$$",
"$$$$$$$$$$$$$$$$$$#XXX.XX..#$$$$",
"$$$$$$$$$$$$$$$$$$$#XXXXXX..#$$$",
"$$$$$$$$$$$$$$$$$$$$#XXX.XX..#$$",
"$$$$$$$$$$$$$$$$$$$$$#XXX.XX..#$",
"$$$$$$$$$$$$$$$$$$$$$$##########",
"$$$$$$$$$$$$$$$$$$$$$$$$$$$$$$$$",
"$$$$$$$$$$$$$$$$$$$$$$$$$$$$$$$$"
};
