/* XPM */
static char *result[] = {
/* columns rows colors chars-per-pixel */
"32 32 9 1 ",
"  c #ff0000",
". c #ff0000",
"X c #ff0000",
"o c #ff0000",
"O c #ff0000",
"+ c #ff0000",
"@ c #ff0000",
"# c #ff0000",
"$ c None",
/* pixels */
"$$$$$$$$$$$$$$$$$$$$$$$$$$$$$$$$",
"$$$$$$$$$$$$$$$$$$$$$$$$$$$$$$$$",
"##########$$$$$$$$$$$$$$$$$$$$$$",
"$#..XX.XXX#$$$$$$$$$$$$$$$$$$$$$",
"$$#..XX.XXX#$$$$$$$$$$$$$$$$$$$$",
"$$$#..XXXXXX#$$$$$$$$$$$$$$$$$$$",
"$$$$#..XX.XXX#$$$$$$$$$$$$$$$$$$",
"$$$$$#..XX.XXX#$$$$$$$$$$$$$$$$$",
"$$$$##X..XXXXXX#$$$$$$$$$$$$$$$$",
"$$$# #X..XX########$$$$$$$$$$$$$",
"$$$# #X..X#....    #########$$$$",
"$$$# #X..#.......   #.X.X.X.##$$",
"$$$$##X.#..  . ....  #XXXXXXXX#$",
"$$$$$#X#......................#$",
"$$$$$##...        O++++O   ####$",
"$$$$$$#..          O++++O #$$$$$",
"$$$$$$#XX..........+@@@@+.#$$$$$",
"$$$$$##XXX........+@@@@+...####$",
"$$$$$#o#XXXXXXXXXXXXXXXXXXXXXX#$",
"$$$$##oX#XX..X.XXXX..#oooooooo#$",
"$$$#.#oXX#XXXXXXX...#XoXoXoX##$$",
"$$$#.#oXXo#XXXX....#########$$$$",
"$$$#.#oXXoo########$$$$$$$$$$$$$",
"$$$$##oXXoooooo#$$$$$$$$$$$$$$$$",
"$$$$$#XXooXooo#$$$$$$$$$$$$$$$$$",
"$$$$#XXooXooo#$$$$$$$$$$$$$$$$$$",
"$$$#XXoooooo#$$$$$$$$$$$$$$$$$$$",
"$$#XXooXooo#$$$$$$$$$$$$$$$$$$$$",
"$#XXooXooo#$$$$$$$$$$$$$$$$$$$$$",
"##########$$$$$$$$$$$$$$$$$$$$$$",
"$$$$$$$$$$$$$$$$$$$$$$$$$$$$$$$$",
"$$$$$$$$$$$$$$$$$$$$$$$$$$$$$$$$"
};
